<svg width="10" height="11" viewBox="0 0 10 11" fill="none" xmlns="http://www.w3.org/2000/svg">
<path fill-rule="evenodd" clip-rule="evenodd" d="M7.91667 2.55575H7.5V1.72241H6.66667V2.55575H3.33333V1.72241H2.5V2.55575H2.08333C1.62083 2.55575 1.25 2.93075 1.25 3.38908V9.22241C1.25 9.68075 1.62083 10.0557 2.08333 10.0557H7.91667C8.375 10.0557 8.75 9.68075 8.75 9.22241V3.38908C8.75 2.93075 8.375 2.55575 7.91667 2.55575ZM7.91667 9.22241H2.08333V4.63908H7.91667V9.22241ZM2.70833 6.30575C2.70833 5.73075 3.175 5.26408 3.75 5.26408C4.325 5.26408 4.79167 5.73075 4.79167 6.30575C4.79167 6.88075 4.325 7.34741 3.75 7.34741C3.175 7.34741 2.70833 6.88075 2.70833 6.30575Z" fill="#4B7CDD"/>
</svg>
